<svg width="20" height="20" viewBox="0 0 20 20" fill="none" xmlns="http://www.w3.org/2000/svg">
<rect width="20" height="20" rx="10" fill="#0085FF"/>
<g clip-path="url(#clip0_294_449)">
<path d="M15 10.8333H10.8334V15C10.8334 15.4583 10.4584 15.8333 10 15.8333C9.54169 15.8333 9.16669 15.4583 9.16669 15V10.8333H5.00002C4.54169 10.8333 4.16669 10.4583 4.16669 9.99996C4.16669 9.54163 4.54169 9.16663 5.00002 9.16663H9.16669V4.99996C9.16669 4.54163 9.54169 4.16663 10 4.16663C10.4584 4.16663 10.8334 4.54163 10.8334 4.99996V9.16663H15C15.4584 9.16663 15.8334 9.54163 15.8334 9.99996C15.8334 10.4583 15.4584 10.8333 15 10.8333Z" fill="white"/>
</g>
<defs>
<clipPath id="clip0_294_449">
<rect width="20" height="20" fill="white"/>
</clipPath>
</defs>
</svg>
