<svg width="12" height="12" viewBox="0 0 12 12" fill="none" xmlns="http://www.w3.org/2000/svg">
<path d="M11 6.83329H6.83334V11C6.83334 11.4583 6.45834 11.8333 6.00001 11.8333C5.54167 11.8333 5.16667 11.4583 5.16667 11V6.83329H1.00001C0.541672 6.83329 0.166672 6.45829 0.166672 5.99996C0.166672 5.54163 0.541672 5.16663 1.00001 5.16663H5.16667V0.999959C5.16667 0.541626 5.54167 0.166626 6.00001 0.166626C6.45834 0.166626 6.83334 0.541626 6.83334 0.999959V5.16663H11C11.4583 5.16663 11.8333 5.54163 11.8333 5.99996C11.8333 6.45829 11.4583 6.83329 11 6.83329Z" fill="white"/>
</svg>
