<svg width="16" height="17" viewBox="0 0 16 17" fill="none" xmlns="http://www.w3.org/2000/svg">
<g clip-path="url(#clip0_99_1233)">
<path d="M11 4.50008V12.1667C11 13.6401 9.80669 14.8334 8.33335 14.8334C6.86002 14.8334 5.66669 13.6401 5.66669 12.1667V3.83342C5.66669 2.91342 6.41335 2.16675 7.33335 2.16675C8.25335 2.16675 9.00002 2.91342 9.00002 3.83342V10.8334C9.00002 11.2001 8.70002 11.5001 8.33335 11.5001C7.96669 11.5001 7.66669 11.2001 7.66669 10.8334V4.50008H6.66669V10.8334C6.66669 11.7534 7.41335 12.5001 8.33335 12.5001C9.25335 12.5001 10 11.7534 10 10.8334V3.83342C10 2.36008 8.80669 1.16675 7.33335 1.16675C5.86002 1.16675 4.66669 2.36008 4.66669 3.83342V12.1667C4.66669 14.1934 6.30669 15.8334 8.33335 15.8334C10.36 15.8334 12 14.1934 12 12.1667V4.50008H11Z" fill="#808EA5"/>
</g>
<defs>
<clipPath id="clip0_99_1233">
<rect width="16" height="16" fill="white" transform="translate(0 0.5)"/>
</clipPath>
</defs>
</svg>
