<svg width="30" height="30" viewBox="0 0 30 30" fill="none" xmlns="http://www.w3.org/2000/svg">
<g clip-path="url(#clip0_178_1211)">
<path d="M15 9C11.685 9 9 11.685 9 15C9 18.315 11.685 21 15 21C18.315 21 21 18.315 21 15C21 11.685 18.315 9 15 9Z" fill="#FFD540"/>
<path d="M5.625 16.125C6.24 16.125 6.75 15.615 6.75 15C6.75 14.385 6.24 13.875 5.625 13.875H2.625C2.01 13.875 1.5 14.385 1.5 15C1.5 15.615 2.01 16.125 2.625 16.125H5.625Z" fill="#FFD540"/>
<path d="M27.375 16.125C27.99 16.125 28.5 15.615 28.5 15C28.5 14.385 27.99 13.875 27.375 13.875H24.375C23.76 13.875 23.25 14.385 23.25 15C23.25 15.615 23.76 16.125 24.375 16.125H27.375Z" fill="#FFD540"/>
<path d="M13.875 5.625C13.875 6.24 14.385 6.75 15 6.75C15.615 6.75 16.125 6.24 16.125 5.625V2.625C16.125 2.01 15.615 1.5 15 1.5C14.385 1.5 13.875 2.01 13.875 2.625V5.625Z" fill="#FFD540"/>
<path d="M20.835 7.57494C20.4 8.00994 20.4 8.72994 20.835 9.16494C21.27 9.59994 21.99 9.59994 22.425 9.16494L24.015 7.57494C24.45 7.13994 24.45 6.41994 24.015 5.98494C23.58 5.54994 22.86 5.54994 22.425 5.98494L20.835 7.57494Z" fill="#FFD540"/>
<path d="M5.98494 22.425C5.54994 22.86 5.54994 23.58 5.98494 24.015C6.41994 24.45 7.13994 24.45 7.57494 24.015L9.16494 22.425C9.59994 21.99 9.59994 21.27 9.16494 20.835C8.72994 20.4 8.00994 20.4 7.57494 20.835L5.98494 22.425Z" fill="#FFD540"/>
<path d="M7.57494 9.16494C8.00994 9.59994 8.72994 9.59994 9.16494 9.16494C9.59994 8.72994 9.59994 8.00994 9.16494 7.57494L7.57494 5.98494C7.13994 5.54994 6.41994 5.54994 5.98494 5.98494C5.54994 6.41994 5.54994 7.13994 5.98494 7.57494L7.57494 9.16494Z" fill="#FFD540"/>
<path d="M22.425 24.015C22.86 24.45 23.58 24.45 24.015 24.015C24.45 23.58 24.45 22.86 24.015 22.425L22.425 20.835C21.99 20.4 21.27 20.4 20.835 20.835C20.4 21.27 20.4 21.99 20.835 22.425L22.425 24.015Z" fill="#FFD540"/>
<path d="M13.875 27.375C13.875 27.99 14.385 28.5 15 28.5C15.615 28.5 16.125 27.99 16.125 27.375V24.375C16.125 23.76 15.615 23.25 15 23.25C14.385 23.25 13.875 23.76 13.875 24.375V27.375Z" fill="#FFD540"/>
</g>
<defs>
<clipPath id="clip0_178_1211">
<rect width="30" height="30" fill="white"/>
</clipPath>
</defs>
</svg>
